<svg width="800" height="600" xmlns="http://www.w3.org/2000/svg" class="svg-canvas" version="1.1" preserveAspectRatio="none">
 <defs>
  <pattern patternunits="objectBoundingBox" height="27%" width="20%" y="0" x="0" id="wm_tile">
   <g fill="#cccccc" id="wm_lm">
    <text id="svg_7" x="82.49097" y="50.24579" transform="rotate(-390 82.491 50.2458) translate(-270.491 -373.246)" font-size="15">
     <tspan id="svg_8" y="751.49158" opacity="0.3" x="457.98195">copyright © copyright ©</tspan>
    </text>
   </g>
  </pattern>
 </defs>

 <g>
  <title>Layer 1</title>
  <g id="background">
   <rect id="svg_9" height="600" width="800" fill="#ffffff"/>
   <!---->
  </g>
  <g transform="translate(333.268 175.813) scale(1 1)" id="shape_OnFVdnzd8Z">
   <g id="svg_10">
    <rect id="svg_11" y="-10" x="-10" height="158.37355" width="153.4648" fill="rgba(0,0,0,0)"/>
    <g id="svg_2">
     <svg data-parent="shape_OnFVdnzd8Z" preserveAspectRatio="none" class="style-removed" xml:space="preserve" viewBox="0 0 100.6 104.3" height="138.37355" width="133.4648" y="0px" x="0px" id="svg_1" version="1.1" xmlns:xlink="http://www.w3.org/1999/xlink" xmlns="http://www.w3.org/2000/svg">
      <g id="svg_12">
       <g id="svg_13">
        <circle id="svg_14" stroke-width="0" fill="#E85676" r="29.2" cy="29.2" cx="29.2"/>
       </g>
       <g id="svg_15">
        <circle id="svg_16" stroke-width="0" fill="#99D0EF" r="29.2" cy="29.2" cx="71.4"/>
       </g>
       <g id="svg_17">
        <circle id="svg_18" stroke-width="0" fill="#E85676" r="4.1" cy="22.2" cx="55.5"/>
       </g>
       <g id="svg_19">
        <path id="svg_20" stroke-width="0" fill="#E85676" d="m33.1,31.9c1.9,5.4 7,8.8 12.5,8.4c4.8,-0.4 9,-3.7 10.6,-8.4l-23.1,0z"/>
       </g>
       <g id="svg_21">
        <circle id="svg_22" stroke-width="0" fill="#6B7AC0" r="29.2" cy="75.1" cx="71.4"/>
       </g>
       <g id="svg_23">
        <circle id="svg_24" stroke-width="0" fill="#F8C103" r="29.2" cy="75.1" cx="29.2"/>
       </g>
       <g id="svg_25">
        <circle id="svg_26" stroke-width="0" fill="#6B7AC0" r="4.3" cy="68.1" cx="45.7"/>
       </g>
       <g id="svg_27">
        <path id="svg_28" stroke-width="0" fill="#6B7AC0" d="m45.7,77.6c1.9,5.4 7,8.8 12.5,8.4c4.8,-0.4 9,-3.7 10.6,-8.4l-23.1,0z"/>
       </g>
      </g>
     </svg>
    </g>
   </g>
  </g>
  <g transform="translate(285.06 304.629) scale(1 1)" id="shape_Jp3heZLfSb">
   <g id="svg_3">
    <svg id="svg_29" viewBox="0 0 281.76 208.11780000000002" height="208.1178" width="281.76" version="1.1" xmlns:xlink="http://www.w3.org/1999/xlink" xmlns="http://www.w3.org/2000/svg">
     <g id="svg_30" data-width="177.50742">
      <path id="svg_31" data-glyph-descender="-21.45238" data-glyph-ascender="30.7389" data-glyph-h="52.19128" data-glyph-w="20.67418" stroke-width="0.043" stroke="#e85676" fill="#e85676" d="m38.73629,104.6889l0,0q-0.33,0.29 -0.86,0.46q-0.54,0.17 -1.24,0.17l0,0q-0.93,0 -1.54,-0.24q-0.61,-0.23 -0.79,-0.8l0,0q-0.73,-2.28 -1.19,-3.7q-0.47,-1.41 -0.73,-2.47l0,0l-0.13,0q-0.08,1.53 -0.12,2.78q-0.04,1.26 -0.05,2.46q-0.01,1.19 -0.05,2.41q-0.04,1.22 -0.12,2.7l0,0q-0.33,0.13 -0.88,0.22q-0.54,0.09 -1.09,0.09l0,0q-1.14,0 -1.78,-0.37q-0.63,-0.36 -0.63,-1.32l0,0l0.75,-13.23q0.21,-0.34 0.91,-0.72q0.7,-0.39 1.97,-0.39l0,0q1.38,0 2.15,0.42q0.78,0.43 1.14,1.39l0,0q0.24,0.62 0.51,1.43q0.27,0.8 0.55,1.66q0.27,0.86 0.53,1.7q0.26,0.84 0.46,1.52l0,0l0.13,0q0.63,-2.18 1.25,-4.22q0.62,-2.04 1.14,-3.41l0,0q0.39,-0.21 1,-0.35q0.61,-0.14 1.36,-0.14l0,0q1.27,0 2.08,0.37q0.8,0.38 0.93,1.08l0,0q0.1,0.52 0.22,1.59q0.12,1.08 0.25,2.43q0.13,1.35 0.26,2.85q0.13,1.51 0.24,2.9q0.12,1.38 0.2,2.54q0.08,1.15 0.1,1.77l0,0q-0.44,0.26 -0.92,0.38q-0.48,0.12 -1.23,0.12l0,0q-0.99,0 -1.66,-0.34q-0.68,-0.34 -0.73,-1.32l0,0q-0.15,-2.83 -0.19,-5.09q-0.04,-2.25 -0.12,-3.78l0,0l-0.13,0q-0.26,1.01 -0.75,2.54q-0.49,1.53 -1.2,3.91z"/>
      <path id="svg_32" data-glyph-descender="-21.45238" data-glyph-ascender="30.7389" data-glyph-h="52.19128" data-glyph-w="17.22416" stroke-width="0.043" stroke="#e85676" fill="#e85676" d="m62.48047,94.7589l0,7.99q0,1.4 -0.48,2.55q-0.48,1.16 -1.39,1.98q-0.91,0.81 -2.21,1.25q-1.29,0.45 -2.93,0.45l0,0q-1.63,0 -2.93,-0.45q-1.3,-0.44 -2.2,-1.25q-0.91,-0.82 -1.39,-1.98q-0.48,-1.15 -0.48,-2.55l0,0l0,-9.91q0.28,-0.05 0.91,-0.14q0.62,-0.09 1.19,-0.09l0,0q0.6,0 1.05,0.09q0.45,0.09 0.77,0.32q0.31,0.24 0.46,0.65q0.16,0.42 0.16,1.09l0,0l0,7.91q0,1.25 0.69,1.95q0.68,0.7 1.77,0.7l0,0q1.12,0 1.79,-0.7q0.68,-0.7 0.68,-1.95l0,0l0,-9.83q0.28,-0.05 0.9,-0.14q0.63,-0.09 1.2,-0.09l0,0q0.59,0 1.05,0.09q0.45,0.09 0.76,0.32q0.31,0.24 0.47,0.65q0.16,0.42 0.16,1.09l0,0z"/>
      <path id="svg_33" data-glyph-descender="-21.45238" data-glyph-ascender="30.7389" data-glyph-h="52.19128" data-glyph-w="14.29294" stroke-width="0.043" stroke="#e85676" fill="#e85676" d="m71.32463,102.6689l-1.09,-0.36q-1.14,-0.39 -2.08,-0.79q-0.93,-0.4 -1.61,-0.98q-0.67,-0.57 -1.05,-1.36q-0.37,-0.79 -0.37,-1.93l0,0q0,-2.2 1.7,-3.53q1.7,-1.32 4.76,-1.32l0,0q1.11,0 2.07,0.16q0.96,0.15 1.65,0.47q0.69,0.33 1.08,0.83q0.38,0.51 0.38,1.19l0,0q0,0.67 -0.31,1.15q-0.31,0.48 -0.75,0.82l0,0q-0.57,-0.37 -1.53,-0.64q-0.96,-0.27 -2.1,-0.27l0,0q-1.17,0 -1.71,0.32q-0.55,0.33 -0.55,0.82l0,0q0,0.39 0.34,0.64q0.34,0.24 1.01,0.45l0,0l1.38,0.44q2.43,0.78 3.74,1.99q1.31,1.2 1.31,3.28l0,0q0,2.2 -1.73,3.56q-1.74,1.37 -5.11,1.37l0,0q-1.2,0 -2.22,-0.2q-1.03,-0.19 -1.79,-0.57q-0.77,-0.38 -1.19,-0.93q-0.43,-0.56 -0.43,-1.29l0,0q0,-0.75 0.44,-1.28q0.44,-0.53 0.96,-0.82l0,0q0.72,0.57 1.78,0.99q1.05,0.41 2.29,0.41l0,0q1.27,0 1.79,-0.39q0.52,-0.39 0.52,-0.91l0,0q0,-0.51 -0.42,-0.79q-0.41,-0.27 -1.16,-0.53l0,0z"/>
      <path id="svg_34" data-glyph-descender="-21.45238" data-glyph-ascender="30.7389" data-glyph-h="52.19128" data-glyph-w="17.43168" stroke-width="0.043" stroke="#e85676" fill="#e85676" d="m94.12757,94.7589l0,13.7q-0.29,0.07 -0.9,0.15q-0.61,0.08 -1.21,0.08l0,0q-0.59,0 -1.05,-0.09q-0.45,-0.09 -0.76,-0.33q-0.31,-0.23 -0.47,-0.64q-0.15,-0.42 -0.15,-1.09l0,0l0,-4.05l-4.98,0l0,5.97q-0.29,0.07 -0.9,0.15q-0.61,0.08 -1.21,0.08l0,0q-0.59,0 -1.05,-0.09q-0.45,-0.09 -0.76,-0.33q-0.31,-0.23 -0.47,-0.64q-0.15,-0.42 -0.15,-1.09l0,0l0,-13.7q0.28,-0.05 0.9,-0.14q0.63,-0.09 1.2,-0.09l0,0q0.59,0 1.05,0.09q0.45,0.09 0.76,0.32q0.31,0.24 0.47,0.65q0.16,0.42 0.16,1.09l0,0l0,4.15l4.98,0l0,-6.07q0.28,-0.05 0.9,-0.14q0.63,-0.09 1.2,-0.09l0,0q0.59,0 1.05,0.09q0.45,0.09 0.76,0.32q0.31,0.24 0.47,0.65q0.16,0.42 0.16,1.09l0,0z"/>
      <path id="svg_35" data-glyph-descender="-21.45238" data-glyph-ascender="30.7389" data-glyph-h="52.19128" data-glyph-w="16.26438" stroke-width="0.043" stroke="#e85676" fill="#e85676" d="m100.83925,93.3089l0,0q0.44,-0.26 1.34,-0.5q0.89,-0.23 1.8,-0.23l0,0q1.3,0 2.3,0.38q1,0.37 1.28,1.18l0,0q0.47,1.35 1.01,3.14q0.55,1.79 1.09,3.69q0.55,1.91 1.07,3.76q0.51,1.86 0.9,3.29l0,0q-0.31,0.36 -0.93,0.58q-0.62,0.22 -1.48,0.22l0,0q-0.62,0 -1.05,-0.1q-0.43,-0.11 -0.7,-0.32q-0.27,-0.2 -0.44,-0.54q-0.17,-0.34 -0.3,-0.78l0,0l-0.47,-1.79l-4.69,0q-0.21,0.78 -0.42,1.61q-0.2,0.83 -0.41,1.61l0,0q-0.36,0.13 -0.77,0.22q-0.4,0.09 -0.97,0.09l0,0q-1.32,0 -1.96,-0.45q-0.63,-0.46 -0.63,-1.26l0,0q0,-0.37 0.1,-0.73q0.1,-0.36 0.23,-0.85l0,0q0.19,-0.71 0.51,-1.74q0.32,-1.04 0.71,-2.25q0.39,-1.2 0.83,-2.47q0.44,-1.28 0.83,-2.4q0.39,-1.13 0.72,-2.01q0.32,-0.89 0.5,-1.35zm3.27,3.34l-0.15,0q-0.37,1.09 -0.82,2.43q-0.46,1.33 -0.82,2.71l0,0l3.22,0q-0.37,-1.4 -0.74,-2.74q-0.38,-1.33 -0.69,-2.4l0,0z"/>
      <path id="svg_36" data-glyph-descender="-21.45238" data-glyph-ascender="30.7389" data-glyph-h="52.19128" data-glyph-w="17.61326" stroke-width="0.043" stroke="#e85676" fill="#e85676" d="m128.00363,94.6789l0,13.34q-0.37,0.36 -1.05,0.55q-0.69,0.2 -1.65,0.2l0,0q-0.96,0 -1.82,-0.29q-0.85,-0.28 -1.4,-1.37l0,0l-2.57,-5.24q-0.38,-0.81 -0.7,-1.52q-0.31,-0.71 -0.67,-1.65l0,0l-0.16,0.03q0.11,1.4 0.12,2.85q0.01,1.45 0.01,2.86l0,0l0,4.02q-0.28,0.07 -0.86,0.15q-0.59,0.08 -1.16,0.08l0,0q-0.57,0 -1.01,-0.08q-0.44,-0.08 -0.73,-0.31q-0.28,-0.23 -0.44,-0.63q-0.15,-0.41 -0.15,-1.06l0,0l0,-12.97q0.36,-0.51 1.11,-0.77q0.75,-0.26 1.61,-0.26l0,0q0.96,0 1.83,0.3q0.87,0.29 1.39,1.36l0,0l2.59,5.24q0.39,0.8 0.7,1.51q0.31,0.72 0.68,1.65l0,0l0.12,-0.02q-0.1,-1.41 -0.12,-2.81q-0.03,-1.4 -0.03,-2.8l0,0l0,-4.2q0.28,-0.08 0.87,-0.16q0.58,-0.07 1.15,-0.07l0,0q1.14,0 1.74,0.4q0.6,0.4 0.6,1.67l0,0z"/>
      <path id="svg_37" data-glyph-descender="-21.45238" data-glyph-ascender="30.7389" data-glyph-h="52.19128" data-glyph-w="9.18276" stroke-width="0.043" stroke="#e85676" fill="#e85676" d="m136.50689,103.7389l-5.55,0q-0.18,-0.29 -0.34,-0.76q-0.15,-0.46 -0.15,-0.98l0,0q0,-0.96 0.44,-1.39q0.44,-0.43 1.14,-0.43l0,0l5.55,0q0.16,0.29 0.33,0.75q0.16,0.47 0.16,0.99l0,0q0,0.96 -0.44,1.39q-0.44,0.43 -1.14,0.43l0,0z"/>
      <path id="svg_38" data-glyph-descender="-21.45238" data-glyph-ascender="30.7389" data-glyph-h="52.19128" data-glyph-w="16.05686" stroke-width="0.043" stroke="#e85676" fill="#e85676" d="m144.96965,102.1489l0,3.17q0.36,0.1 0.93,0.14q0.57,0.04 1.09,0.04l0,0q1.04,0 1.72,-0.43q0.69,-0.43 0.69,-1.33l0,0q0,-0.86 -0.57,-1.22q-0.57,-0.37 -1.74,-0.37l0,0l-2.12,0zm0,-6.22l0,3.06l1.89,0q1.11,0 1.62,-0.42q0.51,-0.41 0.51,-1.22l0,0q0,-0.7 -0.59,-1.11q-0.58,-0.42 -1.75,-0.42l0,0q-0.39,0 -0.89,0.03q-0.51,0.03 -0.79,0.08l0,0zm1.68,13.05l0,0q-0.44,0 -1.04,-0.03q-0.59,-0.03 -1.23,-0.1q-0.63,-0.08 -1.26,-0.2q-0.62,-0.12 -1.14,-0.32l0,0q-1.42,-0.55 -1.42,-1.9l0,0l0,-12.11q0,-0.55 0.29,-0.84q0.3,-0.3 0.82,-0.48l0,0q0.88,-0.32 2.21,-0.46q1.32,-0.14 2.72,-0.14l0,0q3.32,0 5.11,1.11q1.79,1.12 1.79,3.45l0,0q0,1.17 -0.67,2.02q-0.68,0.84 -1.82,1.23l0,0q1.3,0.36 2.17,1.32q0.86,0.96 0.86,2.41l0,0q0,2.57 -1.9,3.8q-1.91,1.24 -5.49,1.24z"/>
      <path id="svg_39" data-glyph-descender="-21.45238" data-glyph-ascender="30.7389" data-glyph-h="52.19128" data-glyph-w="13.30722" stroke-width="0.043" stroke="#e85676" fill="#e85676" d="m165.97651,108.6389l-6.95,0q-1.12,0 -1.77,-0.65q-0.64,-0.65 -0.64,-1.76l0,0l0,-13.42q0.28,-0.05 0.9,-0.14q0.63,-0.09 1.2,-0.09l0,0q0.59,0 1.05,0.09q0.45,0.09 0.76,0.33q0.31,0.23 0.47,0.64q0.16,0.42 0.16,1.09l0,0l0,10.25l5.94,0q0.18,0.29 0.33,0.77q0.16,0.48 0.16,0.99l0,0q0,1.04 -0.44,1.47q-0.44,0.43 -1.17,0.43l0,0z"/>
      <path id="svg_40" data-glyph-descender="-21.45238" data-glyph-ascender="30.7389" data-glyph-h="52.19128" data-glyph-w="18.23582" stroke-width="0.043" stroke="#e85676" fill="#e85676" d="m169.14373,100.6689l0,0q0,-2.02 0.63,-3.58q0.64,-1.55 1.74,-2.6q1.1,-1.05 2.6,-1.6q1.49,-0.54 3.22,-0.54l0,0q1.74,0 3.23,0.54q1.5,0.55 2.61,1.6q1.12,1.05 1.75,2.6q0.64,1.56 0.64,3.58l0,0q0,2.03 -0.62,3.6q-0.63,1.57 -1.73,2.62q-1.1,1.05 -2.61,1.59q-1.5,0.55 -3.27,0.55l0,0q-1.76,0 -3.26,-0.56q-1.51,-0.56 -2.6,-1.62q-1.09,-1.07 -1.71,-2.62q-0.62,-1.56 -0.62,-3.56zm4.67,0l0,0q0,2.36 0.96,3.53q0.96,1.17 2.56,1.17l0,0q1.64,0 2.6,-1.17q0.96,-1.17 0.96,-3.53l0,0q0,-2.33 -0.95,-3.5q-0.94,-1.16 -2.58,-1.16l0,0q-1.61,0 -2.58,1.15q-0.97,1.15 -0.97,3.51z"/>
      <path id="svg_41" data-glyph-descender="-21.45238" data-glyph-ascender="30.7389" data-glyph-h="52.19128" data-glyph-w="17.22416" stroke-width="0.043" stroke="#e85676" fill="#e85676" d="m202.39955,100.6989l0,5.29q0,0.81 -0.29,1.2q-0.28,0.38 -0.91,0.75l0,0q-0.36,0.2 -0.9,0.4q-0.55,0.19 -1.2,0.34q-0.65,0.14 -1.36,0.22q-0.71,0.08 -1.41,0.08l0,0q-1.87,0 -3.5,-0.51q-1.64,-0.51 -2.85,-1.53q-1.2,-1.03 -1.9,-2.56q-0.7,-1.53 -0.7,-3.55l0,0q0,-2.13 0.76,-3.71q0.77,-1.58 2.03,-2.63q1.25,-1.05 2.88,-1.57q1.62,-0.52 3.33,-0.52l0,0q2.46,0 3.9,0.79q1.44,0.79 1.44,2.06l0,0q0,0.68 -0.33,1.17q-0.34,0.49 -0.78,0.78l0,0q-0.65,-0.39 -1.62,-0.77q-0.98,-0.37 -2.2,-0.37l0,0q-2.17,0 -3.46,1.24q-1.28,1.25 -1.28,3.45l0,0q0,1.2 0.35,2.06q0.35,0.87 0.94,1.43q0.6,0.56 1.38,0.83q0.78,0.27 1.66,0.27l0,0q0.57,0 1.01,-0.1q0.44,-0.1 0.68,-0.23l0,0l0,-2.44l-2.78,0q-0.16,-0.29 -0.3,-0.75q-0.14,-0.47 -0.14,-0.99l0,0q0,-0.93 0.43,-1.35q0.42,-0.41 1.1,-0.41l0,0l4.38,0q0.78,0 1.21,0.42q0.43,0.43 0.43,1.21l0,0z"/>
     </g>
    </svg>
   </g>
  </g>
  <g transform="translate(365.002 92.4911) scale(1 1)" id="shape_YeLWOojbUM">
   <g id="svg_4">
    <svg id="svg_42" viewBox="0 0 226 377.39" height="377.39" width="226" version="1.1" xmlns:xlink="http://www.w3.org/1999/xlink" xmlns="http://www.w3.org/2000/svg">
     <g id="svg_43" data-width="37.459">
      <path id="svg_44" data-glyph-descender="-38.869" data-glyph-ascender="55.695" data-glyph-h="94.564" data-glyph-w="37.459" stroke-width="0.078" stroke="rgb(255, 255, 255)" fill="rgb(255, 255, 255)" d="m70.0205,189.69501l0,0q-0.61,0.51 -1.58,0.82q-0.96,0.3 -2.23,0.3l0,0q-1.69,0 -2.8,-0.42q-1.1,-0.42 -1.43,-1.45l0,0q-1.32,-4.14 -2.16,-6.7q-0.85,-2.56 -1.32,-4.49l0,0l-0.23,0q-0.14,2.77 -0.21,5.05q-0.07,2.28 -0.1,4.44q-0.02,2.16 -0.09,4.37q-0.07,2.21 -0.21,4.89l0,0q-0.61,0.24 -1.6,0.4q-0.99,0.17 -1.97,0.17l0,0q-2.07,0 -3.22,-0.66q-1.16,-0.66 -1.16,-2.4l0,0l1.37,-23.97q0.37,-0.61 1.64,-1.31q1.27,-0.71 3.57,-0.71l0,0q2.5,0 3.91,0.78q1.41,0.77 2.06,2.51l0,0q0.43,1.13 0.92,2.58q0.49,1.46 0.99,3.01q0.49,1.55 0.96,3.08q0.47,1.53 0.85,2.75l0,0l0.23,0q1.13,-3.95 2.26,-7.64q1.12,-3.69 2.07,-6.18l0,0q0.7,-0.37 1.8,-0.63q1.11,-0.26 2.47,-0.26l0,0q2.3,0 3.76,0.68q1.46,0.68 1.69,1.95l0,0q0.19,0.94 0.4,2.89q0.21,1.95 0.45,4.4q0.24,2.44 0.47,5.17q0.24,2.72 0.45,5.24q0.21,2.51 0.35,4.6q0.14,2.09 0.19,3.22l0,0q-0.8,0.47 -1.67,0.68q-0.87,0.22 -2.23,0.22l0,0q-1.79,0 -3.01,-0.61q-1.22,-0.62 -1.32,-2.4l0,0q-0.28,-5.12 -0.35,-9.21q-0.07,-4.09 -0.21,-6.87l0,0l-0.24,0q-0.47,1.84 -1.36,4.61q-0.89,2.77 -2.16,7.1z"/>
     </g>
    </svg>
   </g>
  </g>
  <g transform="translate(173.36 122.266) scale(1 1)" id="shape_DikJVpiexP">
   <g id="svg_5">
    <svg id="svg_45" viewBox="0 0 582.56 464.84000000000003" height="464.84" width="582.56" version="1.1" xmlns:xlink="http://www.w3.org/1999/xlink" xmlns="http://www.w3.org/2000/svg">
     <g id="svg_46" data-width="323.2">
      <path id="svg_47" data-glyph-descender="-7.575" data-glyph-ascender="55.55" data-glyph-h="63.125" data-glyph-w="64.64" stroke-width="0.108" stroke="#e85676" fill="#e85676" d="m67,216.08001l25.31,0l0,-10.73q0,-1.45 1.45,-1.45l0,0l6.82,0q1.45,0 1.45,1.45l0,0l0,10.73l25.31,0q1.46,0 1.46,1.45l0,0l0,0.69q0,1.52 -1.46,1.52l0,0l-9.53,0q3.41,25.88 10.61,44.76l0,0q0.38,0.88 -0.32,1.51l0,0l-0.19,0.25q-1.01,0.95 -2.02,0l0,0q-4.92,-4.61 -9.09,-13l0,0q-6.69,-13.76 -8.71,-33.52l0,0l-6.06,0l0,45.95q0,1.46 -1.45,1.46l0,0l-6.82,0q-1.45,0 -1.45,-1.46l0,0l0,-45.95l-6.12,0q-3.29,33.08 -17.74,46.52l0,0q-1.01,0.95 -2.02,0l0,0l-0.19,-0.25q-0.69,-0.63 -0.38,-1.51l0,0q7.26,-18.88 10.61,-44.76l0,0l-9.47,0q-1.45,0 -1.45,-1.52l0,0l0,-0.69q0,-1.45 1.45,-1.45l0,0z"/>
      <path id="svg_48" data-glyph-descender="-7.575" data-glyph-ascender="55.55" data-glyph-h="63.125" data-glyph-w="64.64" stroke-width="0.108" stroke="#e85676" fill="#e85676" d="m131.64,213.62001l10.22,0l0,-8.27q0,-1.45 1.45,-1.45l0,0l6.82,0q1.45,0 1.45,1.45l0,0l0,8.27l8.78,0q1.45,0 1.45,1.45l0,0l0,0.76q0,1.45 -1.45,1.45l0,0l-0.88,0l2.27,47.15q0,0.63 -0.44,1.08l0,0q-0.45,0.44 -1.01,0.44l0,0l-3.16,0q-1.39,0 -1.45,-1.39l0,0l-2.46,-47.28l-1.65,0l0,48.41q0,1.46 -1.45,1.46l0,0l-6.82,0q-1.45,0 -1.45,-1.46l0,0l0,-48.41l-1.51,0q0,35.66 -6.5,48.73l0,0q-0.63,1.2 -1.9,0.69l0,0l-0.75,-0.31q-1.01,-0.44 -0.89,-1.58l0,0q2.21,-17.55 2.21,-47.53l0,0l-0.88,0q-1.45,0 -1.45,-1.45l0,0l0,-0.76q0,-1.45 1.45,-1.45l0,0zm61.23,31.12q-3.85,11.23 -14.33,17.36l0,0q-6.25,3.72 -13.26,4.92l0,0q-1.01,0.19 -1.51,-0.82l0,0l-0.19,-0.32q-0.57,-1.13 0.5,-1.83l0,0q14.52,-9.72 19.26,-20.32l0,0q0.38,-0.89 1.32,-0.89l0,0l6.82,0q0.76,0 1.14,0.57l0,0q0.44,0.63 0.25,1.33l0,0zm-2.46,-38.89q-3.73,11.05 -13.13,17.23l0,0q-5.62,3.73 -11.93,4.99l0,0q-1.08,0.19 -1.58,-0.82l0,0l-0.19,-0.38q-0.57,-1.07 0.38,-1.77l0,0q11.3,-8.71 16.91,-20.38l0,0q0.38,-0.82 1.33,-0.82l0,0l6.82,0q0.75,0 1.2,0.63l0,0q0.44,0.56 0.19,1.32l0,0zm1.2,19.44q-3.73,11.11 -13.7,17.3l0,0q-5.94,3.72 -12.56,4.92l0,0q-1.08,0.19 -1.58,-0.75l0,0l-0.19,-0.38q-0.57,-1.08 0.44,-1.83l0,0q13.38,-9.66 18.12,-20.33l0,0q0.38,-0.88 1.32,-0.88l0,0l6.76,0q0.75,0 1.2,0.63l0,0q0.44,0.63 0.19,1.32l0,0z"/>
      <path id="svg_49" data-glyph-descender="-7.7568" data-glyph-ascender="56.8832" data-glyph-h="64.64" data-glyph-w="64.64" stroke-width="0.108" stroke="#e85676" fill="#e85676" d="m211.9,247.74001l0,0q2.14,0 4.66,-3.49q2.52,-3.49 4.97,-11.44l0,0q2.46,-8.15 3.56,-17.13l0,0q-9.24,1.49 -14.42,7.79q-5.17,6.3 -5.17,12.7l0,0q0,4.01 1.04,6.59q1.03,2.59 2.52,3.79q1.48,1.19 2.84,1.19zm16.81,10.73l0,0l-2.97,-4.85q3.1,-0.32 5.42,-0.77l0,0q4.21,-0.91 7.86,-3.23q3.65,-2.33 5.98,-6.21q2.32,-3.88 2.32,-9.37l0,0q0,-7.24 -4.36,-12.41q-4.36,-5.17 -12.51,-6.01l0,0q-1.22,9.11 -3.81,18.29l0,0q-6.01,19.78 -14.93,19.78l0,0q-2.78,0 -5.4,-2.07q-2.62,-2.07 -4.27,-5.92q-1.64,-3.84 -1.64,-9.08l0,0q0,-6.91 3.71,-12.8q3.72,-5.88 10.05,-9.47q6.34,-3.58 14.1,-3.58l0,0q7.49,0 12.96,3.16q5.46,3.17 8.43,8.47q2.98,5.3 2.98,11.77l0,0q0,10.02 -6.24,16.38q-6.24,6.37 -17.68,7.92z"/>
      <path id="svg_50" data-glyph-descender="-7.575" data-glyph-ascender="55.55" data-glyph-h="63.125" data-glyph-w="64.64" stroke-width="0.108" stroke="#e85676" fill="#e85676" d="m295.95,205.35001l0,49.68q0,6.43 -4.48,9.65l0,0q-2.78,1.96 -6.63,2.4l0,0q-1.01,0.13 -1.51,-0.75l0,0l-0.26,-0.64q-0.44,-0.88 0.26,-1.64l0,0q2.9,-3.09 2.9,-9.02l0,0l0,-49.68q0,-1.45 1.45,-1.45l0,0l6.82,0q1.45,0 1.45,1.45l0,0zm-19.5,2.46q-0.26,42.86 -14.08,57.13l0,0q-1.01,1.07 -2.08,0.06l0,0l-0.26,-0.25q-0.56,-0.57 -0.38,-1.39l0,0q5.31,-21.4 7.01,-55.61l0,0q0.06,-1.39 1.45,-1.39l0,0l6.88,0q0.63,0 1.08,0.38l0,0q0.44,0.44 0.38,1.07l0,0zm29.41,0.19l6.95,56.68q0.19,1.27 1.45,1.27l0,0l6.82,0q0.63,0 1.07,-0.51l0,0q0.44,-0.5 0.38,-1.13l0,0l-6.95,-56.69q-0.19,-1.26 -1.45,-1.26l0,0l-6.82,0q-0.63,0 -1.07,0.44l0,0q-0.44,0.5 -0.38,1.2l0,0z"/>
      <path id="svg_51" data-glyph-descender="-7.575" data-glyph-ascender="55.55" data-glyph-h="63.125" data-glyph-w="64.64" stroke-width="0.108" stroke="#e85676" fill="#e85676" d="m382.94,220.69001q0.94,0.5 0.69,1.64l0,0q-0.31,1.01 -1.45,1.01l0,0l-7.39,0q-0.37,0 -0.75,-0.19l0,0l-11.62,-6.82q-0.94,-0.57 -0.63,-1.64l0,0q0.25,-1.07 1.39,-1.07l0,0l7.39,0q0.37,0 0.75,0.25l0,0l11.62,6.82zm-6.57,-4.86l0,-3.16q0,-1.45 -1.45,-1.45l0,0l-38.44,0q-1.45,0 -1.45,1.45l0,0l0,3.16q0,1.45 -1.46,1.45l0,0l-6.81,0q-1.46,0 -1.46,-1.45l0,0l0,-6.82q0,-1.45 1.46,-1.45l0,0l24.11,0l0,-2.21q0,-1.45 1.45,-1.45l0,0l6.82,0q1.45,0 1.45,1.45l0,0l0,2.21l24.12,0q1.45,0 1.45,1.45l0,0l0,6.82q0,1.45 -1.45,1.45l0,0l-6.82,0q-1.52,0 -1.52,-1.45l0,0zm-36.86,-1.9q0.38,-0.31 0.94,-0.31l0,0l7.58,0q0.95,0 1.32,0.88l0,0q0.45,0.82 -0.18,1.51l0,0q-6.76,7.9 -22.92,8.53l0,0q-0.95,0.06 -1.39,-0.76l0,0l-0.06,-0.19q-0.25,-0.57 -0.06,-1.14l0,0q0.25,-0.63 0.88,-0.88l0,0q8.71,-3.35 13.89,-7.64l0,0zm22.47,47.72l-6.31,-8.96q-5.68,8.84 -14.65,10.67l0,0q-1.07,0.19 -1.58,-0.82l0,0l-0.31,-0.57q-0.44,-0.88 0.25,-1.58l0,0q4.61,-5.17 8.33,-12.69l0,0l-9.97,0q-1.51,0 -1.51,1.46l0,0l0,16.53q0,1.46 -1.46,1.46l0,0l-6.81,0q-1.46,0 -1.46,-1.46l0,0l0,-20.2q0,-1.45 1.46,-1.45l0,0l21.46,0q0.76,-1.83 1.45,-3.66l0,0l-20.45,0q-1.45,0 -1.45,-1.45l0,0l0,-11.68q0,-1.45 1.45,-1.45l0,0l50.62,0q1.46,0 1.46,1.45l0,0l0,11.68q0,1.45 -1.46,1.45l0,0l-20.45,0q-0.44,1.9 -0.95,3.66l0,0l23.8,0q1.45,0 1.45,1.45l0,0l0,9.54q0,6.43 -4.41,9.65l0,0q-2.78,1.96 -6.7,2.4l0,0q-1.01,0.13 -1.45,-0.75l0,0l-0.31,-0.64q-0.44,-0.88 0.25,-1.64l0,0q2.9,-3.09 2.9,-9.02l0,0l0,-5.87q0,-1.46 -1.45,-1.46l0,0l-15.4,0q-0.57,1.27 -1.2,2.4l0,0l6.38,0q0.75,0 1.19,0.63l0,0l6.44,9.28q0.51,0.7 0.13,1.52l0,0q-0.44,0.76 -1.33,0.76l0,0l-6.81,0q-0.76,0 -1.14,-0.64l0,0zm10.79,-26.38l0,-4.36q0,-1.45 -1.45,-1.45l0,0l-31.18,0q-1.45,0 -1.45,1.45l0,0l0,4.36q0,1.45 1.45,1.45l0,0l31.18,0q1.45,0 1.45,-1.45l0,0z"/>
     </g>
    </svg>
   </g>
  </g>
  <g transform="translate(303.699 29.2924) scale(1 1)" id="shape_wEBH3DDDg3">
   <g id="svg_6">
    <svg id="svg_52" viewBox="0 0 226 377.39" height="377.39" width="226" version="1.1" xmlns:xlink="http://www.w3.org/1999/xlink" xmlns="http://www.w3.org/2000/svg">
     <g id="svg_53" data-width="37.459">
      <path id="svg_54" data-glyph-descender="-38.869" data-glyph-ascender="55.695" data-glyph-h="94.564" data-glyph-w="37.459" stroke-width="0.078" stroke="rgb(255, 255, 255)" fill="rgb(255, 255, 255)" d="m70.0205,189.69501l0,0q-0.61,0.51 -1.58,0.82q-0.96,0.3 -2.23,0.3l0,0q-1.69,0 -2.8,-0.42q-1.1,-0.42 -1.43,-1.45l0,0q-1.32,-4.14 -2.16,-6.7q-0.85,-2.56 -1.32,-4.49l0,0l-0.23,0q-0.14,2.77 -0.21,5.05q-0.07,2.28 -0.1,4.44q-0.02,2.16 -0.09,4.37q-0.07,2.21 -0.21,4.89l0,0q-0.61,0.24 -1.6,0.4q-0.99,0.17 -1.97,0.17l0,0q-2.07,0 -3.22,-0.66q-1.16,-0.66 -1.16,-2.4l0,0l1.37,-23.97q0.37,-0.61 1.64,-1.31q1.27,-0.71 3.57,-0.71l0,0q2.5,0 3.91,0.78q1.41,0.77 2.06,2.51l0,0q0.43,1.13 0.92,2.58q0.49,1.46 0.99,3.01q0.49,1.55 0.96,3.08q0.47,1.53 0.85,2.75l0,0l0.23,0q1.13,-3.95 2.26,-7.64q1.12,-3.69 2.07,-6.18l0,0q0.7,-0.37 1.8,-0.63q1.11,-0.26 2.47,-0.26l0,0q2.3,0 3.76,0.68q1.46,0.68 1.69,1.95l0,0q0.19,0.94 0.4,2.89q0.21,1.95 0.45,4.4q0.24,2.44 0.47,5.17q0.24,2.72 0.45,5.24q0.21,2.51 0.35,4.6q0.14,2.09 0.19,3.22l0,0q-0.8,0.47 -1.67,0.68q-0.87,0.22 -2.23,0.22l0,0q-1.79,0 -3.01,-0.61q-1.22,-0.62 -1.32,-2.4l0,0q-0.28,-5.12 -0.35,-9.21q-0.07,-4.09 -0.21,-6.87l0,0l-0.24,0q-0.47,1.84 -1.36,4.61q-0.89,2.77 -2.16,7.1z"/>
     </g>
    </svg>
   </g>
  </g>
  <rect id="svg_55" fill=" url(#wm_tile)" height="100%" width="100%" y="0" x="0"/>
 </g>
</svg>